<?xml version="1.0" encoding="UTF-8"?>
<svg width="18px" height="32px" viewBox="0 0 18 32" version="1.1" xmlns="http://www.w3.org/2000/svg" xmlns:xlink="http://www.w3.org/1999/xlink" xmlns:sketch="http://www.bohemiancoding.com/sketch/ns">
    <!-- Generator: Sketch 3.3.3 (12081) - http://www.bohemiancoding.com/sketch -->
    <title>Rectangle 23 Copy 5</title>
    <desc>Created with Sketch.</desc>
    <defs></defs>
    <g id="Page-1" stroke="none" stroke-width="1" fill="none" fill-rule="evenodd" sketch:type="MSPage">
        <g id="Home-Copy" sketch:type="MSArtboardGroup" transform="translate(-27.000000, -73.000000)" fill="#363636">
            <path d="M36,92.3124811 L24.377786,80.6902671 C23.5025203,79.8150015 22.0930004,79.8170889 21.2223475,80.6877418 C20.3456245,81.5644648 20.3528251,82.9711327 21.2248727,83.8431803 L33.5383694,96.1566769 C33.6193023,96.5790214 33.8238878,96.9830098 34.1531362,97.3122582 C34.6574709,97.8165929 35.3426185,98.029487 36,97.9492323 C36.6573815,98.029487 37.3425291,97.8165929 37.8468638,97.3122582 C38.1761122,96.9830098 38.3806977,96.5790214 38.4616306,96.1566769 L50.7751273,83.8431803 C51.6471749,82.9711327 51.6543755,81.5644648 50.7776525,80.6877418 C49.9069996,79.8170889 48.4974797,79.8150015 47.622214,80.6902671 L36,92.3124811 Z" id="Rectangle-23-Copy-5" sketch:type="MSShapeGroup" transform="translate(36.000000, 89.000000) scale(-1, 1) rotate(-90.000000) translate(-36.000000, -89.000000) "></path>
        </g>
    </g>
</svg>