<?xml version="1.0" encoding="UTF-8"?>
<svg width="40px" height="40px" viewBox="0 0 40 40" version="1.1" xmlns="http://www.w3.org/2000/svg" xmlns:xlink="http://www.w3.org/1999/xlink">
    <!-- Generator: Sketch 3.8.1 (29687) - http://www.bohemiancoding.com/sketch -->
    <title>Group 2</title>
    <desc>Created with Sketch.</desc>
    <defs></defs>
    <g id="Page-1" stroke="none" stroke-width="1" fill="none" fill-rule="evenodd">
        <g id="Player-dashboard" transform="translate(-160.000000, -5.000000)" fill="#FFFFFF">
            <g id="Group-2" transform="translate(160.000000, 5.000000)">
                <path d="M0,1.99508929 C0,0.893231902 0.892622799,0 1.99508929,0 L16.0049107,0 C17.1067681,0 18,0.892622799 18,1.99508929 L18,16.0049107 C18,17.1067681 17.1073772,18 16.0049107,18 L1.99508929,18 C0.893231902,18 0,17.1073772 0,16.0049107 L0,1.99508929 Z M3,5.0085302 C3,3.8992496 3.90195036,3 5.0085302,3 L12.9914698,3 C14.1007504,3 15,3.90195036 15,5.0085302 L15,12.9914698 C15,14.1007504 14.0980496,15 12.9914698,15 L5.0085302,15 C3.8992496,15 3,14.0980496 3,12.9914698 L3,5.0085302 Z" id="Combined-Shape"></path>
                <path d="M22,23.9950893 C22,22.8932319 22.8926228,22 23.9950893,22 L38.0049107,22 C39.1067681,22 40,22.8926228 40,23.9950893 L40,38.0049107 C40,39.1067681 39.1073772,40 38.0049107,40 L23.9950893,40 C22.8932319,40 22,39.1073772 22,38.0049107 L22,23.9950893 Z M25,27.0085302 C25,25.8992496 25.9019504,25 27.0085302,25 L34.9914698,25 C36.1007504,25 37,25.9019504 37,27.0085302 L37,34.9914698 C37,36.1007504 36.0980496,37 34.9914698,37 L27.0085302,37 C25.8992496,37 25,36.0980496 25,34.9914698 L25,27.0085302 Z" id="Combined-Shape"></path>
                <path d="M0,23.9950893 C0,22.8932319 0.892622799,22 1.99508929,22 L16.0049107,22 C17.1067681,22 18,22.8926228 18,23.9950893 L18,38.0049107 C18,39.1067681 17.1073772,40 16.0049107,40 L1.99508929,40 C0.893231902,40 0,39.1073772 0,38.0049107 L0,23.9950893 Z M3,27.0085302 C3,25.8992496 3.90195036,25 5.0085302,25 L12.9914698,25 C14.1007504,25 15,25.9019504 15,27.0085302 L15,34.9914698 C15,36.1007504 14.0980496,37 12.9914698,37 L5.0085302,37 C3.8992496,37 3,36.0980496 3,34.9914698 L3,27.0085302 Z" id="Combined-Shape"></path>
                <path d="M22,1.99508929 C22,0.893231902 22.8926228,0 23.9950893,0 L38.0049107,0 C39.1067681,0 40,0.892622799 40,1.99508929 L40,16.0049107 C40,17.1067681 39.1073772,18 38.0049107,18 L23.9950893,18 C22.8932319,18 22,17.1073772 22,16.0049107 L22,1.99508929 Z M25,5.0085302 C25,3.8992496 25.9019504,3 27.0085302,3 L34.9914698,3 C36.1007504,3 37,3.90195036 37,5.0085302 L37,12.9914698 C37,14.1007504 36.0980496,15 34.9914698,15 L27.0085302,15 C25.8992496,15 25,14.0980496 25,12.9914698 L25,5.0085302 Z" id="Combined-Shape"></path>
            </g>
        </g>
    </g>
</svg>