<?xml version="1.0" encoding="UTF-8"?>
<svg width="20px" height="29px" viewBox="0 0 20 29" version="1.1" xmlns="http://www.w3.org/2000/svg" xmlns:xlink="http://www.w3.org/1999/xlink" xmlns:sketch="http://www.bohemiancoding.com/sketch/ns">
    <!-- Generator: Sketch 3.3.3 (12081) - http://www.bohemiancoding.com/sketch -->
    <title>locked</title>
    <desc>Created with Sketch.</desc>
    <defs></defs>
    <g id="Page-1" stroke="none" stroke-width="1" fill="none" fill-rule="evenodd" sketch:type="MSPage">
        <g id="DM-Copy-2" sketch:type="MSArtboardGroup" transform="translate(-658.000000, -427.000000)" fill="#363636">
            <g id="Slaide-card-Copy" sketch:type="MSLayerGroup" transform="translate(258.000000, 416.000000)">
                <g id="locked" transform="translate(400.000000, 11.000000)" sketch:type="MSShapeGroup">
                    <g id="Group">
                        <path d="M10,15 C8.897,15 8,15.897 8,17 L8,20 C8,21.103 8.897,22 10,22 C11.103,22 12,21.103 12,20 L12,17 C12,15.897 11.103,15 10,15 L10,15 Z M11,20 C11,20.5515 10.5515,21 10,21 C9.4485,21 9,20.5515 9,20 L9,17 C9,16.4485 9.4485,16 10,16 C10.5515,16 11,16.4485 11,17 L11,20 L11,20 Z" id="Shape"></path>
                        <path d="M15.5,10.657 L15.5,5.11 C15.5,2.2925 13.0325,0 10,0 C6.9675,0 4.5,2.2925 4.5,5.11 L4.5,10.657 C1.792,12.448 0,15.517 0,19 C0,24.514 4.486,29 10,29 C15.514,29 20,24.514 20,19 C20,15.517 18.208,12.448 15.5,10.657 L15.5,10.657 Z M5.5,10.0785 L5.5,5.11 C5.5,2.844 7.5185,1 10,1 C12.4815,1 14.5,2.844 14.5,5.11 L14.5,10.079 C14.406,10.0315 14.31,9.9895 14.215,9.945 C14.0185,9.853 13.819,9.767 13.616,9.6875 C13.4855,9.6365 13.3545,9.5885 13.2225,9.543 C13.0925,9.4985 12.9635,9.454 12.8315,9.415 C12.613,9.35 12.392,9.2945 12.1695,9.2445 C12.073,9.223 11.976,9.2025 11.8785,9.1835 C11.617,9.133 11.354,9.092 11.089,9.0625 C11.029,9.056 10.969,9.052 10.909,9.0465 C10.6065,9.018 10.304,9 10,9 C9.696,9 9.3935,9.018 9.092,9.046 C9.032,9.0515 8.9715,9.0555 8.912,9.062 C8.647,9.0915 8.384,9.1325 8.1225,9.183 C8.025,9.2015 7.928,9.2225 7.8315,9.244 C7.609,9.294 7.388,9.3495 7.1695,9.4145 C7.0375,9.4535 6.908,9.4985 6.7785,9.5425 C6.6465,9.588 6.515,9.636 6.385,9.687 C6.1815,9.766 5.9825,9.8525 5.786,9.9445 C5.69,9.989 5.594,10.031 5.5,10.0785 L5.5,10.0785 Z M10,28 C5.0375,28 1,23.9625 1,19 C1,15.7315 2.7575,12.8725 5.3715,11.296 C5.8315,11.019 6.312,10.7855 6.808,10.5955 C6.896,10.562 6.9845,10.529 7.0735,10.498 C7.21,10.4505 7.347,10.405 7.4855,10.364 C7.6555,10.3145 7.828,10.2705 8.002,10.231 C8.129,10.202 8.2565,10.1765 8.3845,10.153 C8.569,10.1195 8.755,10.0895 8.9435,10.0675 C9.0285,10.057 9.114,10.048 9.1995,10.0405 C9.464,10.017 9.73,10 10,10 C10.27,10 10.536,10.017 10.8005,10.0405 C10.886,10.0485 10.971,10.0575 11.0565,10.0675 C11.245,10.0895 11.431,10.1195 11.6155,10.153 C11.7435,10.1765 11.871,10.202 11.998,10.231 C12.172,10.2705 12.3445,10.3145 12.5145,10.364 C12.653,10.4045 12.79,10.4505 12.9265,10.498 C13.016,10.529 13.104,10.562 13.192,10.5955 C13.688,10.7855 14.1685,11.019 14.6285,11.296 C17.2425,12.8725 19,15.7315 19,19 C19,23.9625 14.9625,28 10,28 L10,28 Z" id="Shape"></path>
                    </g>
                </g>
            </g>
        </g>
    </g>
</svg>
