<?xml version="1.0" encoding="UTF-8"?>
<svg width="62px" height="62px" viewBox="0 0 62 62" version="1.1" xmlns="http://www.w3.org/2000/svg" xmlns:xlink="http://www.w3.org/1999/xlink" xmlns:sketch="http://www.bohemiancoding.com/sketch/ns">
    <!-- Generator: Sketch 3.3.3 (12081) - http://www.bohemiancoding.com/sketch -->
    <title>settings</title>
    <desc>Created with Sketch.</desc>
    <defs></defs>
    <g id="Page-1" stroke="none" stroke-width="1" fill="none" fill-rule="evenodd" sketch:type="MSPage">
        <g id="DM" sketch:type="MSArtboardGroup" transform="translate(-285.000000, -189.000000)" fill="#363636">
            <g id="settings" sketch:type="MSLayerGroup" transform="translate(285.000000, 189.000000)">
                <path d="M59.6665329,26.4568584 L53.5315741,25.4334091 C53.0856856,23.6104571 52.4355496,21.8678907 51.5888384,20.2426198 L55.5162653,15.3730279 C56.3515719,14.3439108 56.3136254,12.8631683 55.4329766,11.8699242 L52.9929967,9.12388406 C52.1085463,8.1316767 50.641835,7.92183055 49.5230702,8.62864437 L44.2765017,11.9267402 C41.9688852,10.3144638 39.354932,9.12388406 36.5351416,8.43303679 L35.5087202,2.26517726 C35.2933445,0.959168339 34.163175,0.000898550725 32.8364994,0.000898550725 L29.1594916,0.000898550725 C27.8355117,0.000898550725 26.7015407,0.959168339 26.4909342,2.26517726 L25.4589142,8.43497213 C23.1275897,9.0057592 20.9417614,9.92711929 18.9469788,11.1405775 L13.9573958,7.57969008 C12.8820379,6.81142921 11.4050279,6.93155853 10.4665953,7.86798662 L7.86888517,10.467563 C6.93245708,11.4059955 6.81232776,12.8830056 7.58259309,13.9583634 L11.1517748,18.9574849 C9.94972129,20.9371996 9.03783055,23.1105864 8.4671126,25.421175 L2.26414047,26.4569275 C0.960136009,26.6723032 0,27.8025418 0,29.1292865 L0,32.8033913 C0,34.1299978 0.960136009,35.2603746 2.26414047,35.4757503 L8.4671126,36.5115028 C8.93581048,38.4128361 9.61622074,40.2290145 10.5205775,41.9129677 L6.6110524,46.7550502 C5.77857971,47.7831996 5.81355407,49.2649097 6.6942029,50.2572553 L9.13231661,53.0033645 C10.0168361,53.9974381 11.4843077,54.2034827 12.6032107,53.498466 L17.9253958,50.1551661 C20.1773712,51.6954894 22.725039,52.8275942 25.4589142,53.498466 L26.4909342,59.6673623 C26.7016098,60.9734404 27.8355117,61.9317101 29.1594916,61.9317101 L32.8364994,61.9317101 C34.163175,61.9317101 35.2933445,60.9735095 35.5087202,59.6674314 L36.5368696,53.4985351 C38.8390948,52.9354203 40.9972062,52.0300959 42.9742252,50.8374426 L48.1717191,54.5494939 C49.2451416,55.3205195 50.7232575,55.1995608 51.6607224,54.2601605 L54.2594693,51.6614827 C55.1947915,50.7258841 55.3214872,49.2497035 54.5447246,48.1724103 L50.8443545,42.9843857 C52.049864,40.9980357 52.9665931,38.8207781 53.5337168,36.4998907 L59.6686065,35.4755429 C60.9764125,35.2601672 61.9326778,34.1298595 61.9326778,32.8031839 L61.9326778,29.1290792 C61.9307425,27.8025418 60.9744771,26.6723032 59.6665329,26.4568584 L59.6665329,26.4568584 Z M31.0635897,42.578379 C24.6518082,42.578379 19.4515496,37.3771527 19.4515496,30.9663389 C19.4515496,24.5545574 24.6518082,19.3542988 31.0635897,19.3542988 C37.4742653,19.3542988 42.6754916,24.5545574 42.6754916,30.9663389 C42.6754916,37.3771527 37.4742653,42.578379 31.0635897,42.578379 L31.0635897,42.578379 Z" id="settings_1_" sketch:type="MSShapeGroup"></path>
            </g>
        </g>
    </g>
</svg>